<?xml version="1.0" standalone="no"?>
<!DOCTYPE svg PUBLIC "-//W3C//DTD SVG 20010904//EN"
 "http://www.w3.org/TR/2001/REC-SVG-20010904/DTD/svg10.dtd">
<svg version="1.0" xmlns="http://www.w3.org/2000/svg"
 width="185.000000pt" height="156.000000pt" viewBox="0 0 185.000000 156.000000"
 preserveAspectRatio="xMidYMid meet">

<g transform="translate(0.000000,156.000000) scale(0.100000,-0.100000)"
fill="#000000" stroke="none">
<path d="M823 1500 c-273 -42 -492 -233 -568 -493 l-16 -57 -70 0 c-61 0 -73
-3 -94 -25 -14 -13 -25 -32 -26 -42 -1 -10 -3 -34 -4 -53 -5 -52 13 -108 40
-126 13 -8 54 -19 91 -22 l66 -7 17 -55 c53 -171 189 -334 341 -408 47 -23
114 -50 150 -59 88 -23 254 -22 339 1 226 61 413 242 482 466 l17 55 65 7 c72
7 101 19 117 48 17 31 22 118 10 155 -17 51 -43 65 -122 65 l-67 0 -16 58
c-51 176 -187 341 -345 420 -47 23 -111 48 -142 56 -74 19 -200 27 -265 16z
m203 -235 c61 -18 122 -59 190 -125 53 -52 120 -162 109 -180 -9 -15 -825 -14
-825 1 0 27 66 131 113 179 52 53 134 106 197 126 51 17 159 16 216 -1z m304
-591 c0 -3 -14 -33 -32 -66 -44 -83 -133 -169 -216 -210 -61 -30 -74 -33 -162
-33 -76 0 -107 5 -152 23 -95 39 -220 167 -258 266 l-10 26 415 0 c228 0 415
-3 415 -6z"/>
</g>
</svg>
